{
  "accessors": [
    {
      "bufferView": 2,
      "componentType": 5126,
      "count": 2461,
      "max": [
        0.2082388997077942,
        0.36357420682907104,
        0.25418779253959656
      ],
      "min": [
        -0.2082388997077942,
        -0.5268532037734985,
        -0.22865597903728485
      ],
      "type": "VEC3"
    },
    {
      "bufferView": 2,
      "byteOffset": 29532,
      "componentType": 5126,
      "count": 2461,
      "max": [
        1.0,
        0.9997423887252808,
        0.9999412894248962
      ],
      "min": [
        -0.9999284148216248,
        -0.9997672438621521,
        -0.9999991059303284
      ],
      "type": "VEC3"
    },
    {
      "bufferView": 1,
      "componentType": 5126,
      "count": 2461,
      "max": [
        0.9848272800445557,
        0.9962787628173828
      ],
      "min": [
        0.003726149909198284,
        0.004138266202062368
      ],
      "type": "VEC2"
    },
    {
      "bufferView": 0,
      "componentType": 5125,
      "count": 11274,
      "type": "SCALAR"
    },
    {
      "bufferView": 2,
      "byteOffset": 59064,
      "componentType": 5126,
      "count": 3036,
      "max": [
        0.16795924305915833,
        -0.18740756809711456,
        -0.0287712924182415
      ],
      "min": [
        -0.16633710265159607,
        -0.36663922667503357,
        -0.13179557025432587
      ],
      "type": "VEC3"
    },
    {
      "bufferView": 2,
      "byteOffset": 95496,
      "componentType": 5126,
      "count": 3036,
      "max": [
        0.9998345971107483,
        0.9998226761817932,
        0.9975069761276245
      ],
      "min": [
        -0.999878466129303,
        -0.9993524551391602,
        -0.9984177350997925
      ],
      "type": "VEC3"
    },
    {
      "bufferView": 1,
      "byteOffset": 19688,
      "componentType": 5126,
      "count": 3036,
      "max": [
        0.79778653383255,
        0.8092380166053772
      ],
      "min": [
        0.003935948479920626,
        0.003970448859035969
      ],
      "type": "VEC2"
    },
    {
      "bufferView": 0,
      "byteOffset": 45096,
      "componentType": 5125,
      "count": 12672,
      "type": "SCALAR"
    }
  ],
  "asset": {
    "extras": {
      "author": "Moyset (https://sketchfab.com/weirdteller)",
      "license": "CC-BY-4.0 (http://creativecommons.org/licenses/by/4.0/)",
      "source": "https://sketchfab.com/3d-models/anglerfish-6e9eb3181dff47fa85ed659b56436bbd",
      "title": "Anglerfish"
    },
    "generator": "Sketchfab-17.3.0",
    "version": "2.0"
  },
  "bufferViews": [
    {
      "buffer": 0,
      "byteLength": 95784,
      "name": "floatBufferViews",
      "target": 34963
    },
    {
      "buffer": 0,
      "byteLength": 43976,
      "byteOffset": 95784,
      "byteStride": 8,
      "name": "floatBufferViews",
      "target": 34962
    },
    {
      "buffer": 0,
      "byteLength": 131928,
      "byteOffset": 139760,
      "byteStride": 12,
      "name": "floatBufferViews",
      "target": 34962
    }
  ],
  "buffers": [
    {
      "byteLength": 271688,
      "uri": "scene.bin"
    }
  ],
  "extensionsUsed": [
    "KHR_materials_unlit"
  ],
  "images": [
    {
      "uri": "textures/Scene_-_Root_baseColor.png"
    },
    {
      "uri": "textures/Scene_-_Root_emissive.png"
    }
  ],
  "materials": [
    {
      "doubleSided": true,
      "emissiveFactor": [
        0.8380977922980336,
        0.8380977922980336,
        0.8380977922980336
      ],
      "emissiveTexture": {
        "index": 1
      },
      "extensions": {
        "KHR_materials_unlit": {}
      },
      "name": "Scene_-_Root",
      "pbrMetallicRoughness": {
        "baseColorTexture": {
          "index": 0
        },
        "metallicFactor": 0.0
      }
    }
  ],
  "meshes": [
    {
      "name": "fish_low__0",
      "primitives": [
        {
          "attributes": {
            "NORMAL": 1,
            "POSITION": 0,
            "TEXCOORD_0": 2
          },
          "indices": 3,
          "material": 0,
          "mode": 4
        }
      ]
    },
    {
      "name": "teeth_low__0",
      "primitives": [
        {
          "attributes": {
            "NORMAL": 5,
            "POSITION": 4,
            "TEXCOORD_0": 6
          },
          "indices": 7,
          "material": 0,
          "mode": 4
        }
      ]
    }
  ],
  "nodes": [
    {
      "children": [
        1
      ],
      "matrix": [
        1.0,
        0.0,
        0.0,
        0.0,
        0.0,
        2.220446049250313e-16,
        -1.0,
        0.0,
        0.0,
        1.0,
        2.220446049250313e-16,
        0.0,
        0.0,
        0.0,
        0.0,
        1.0
      ],
      "name": "Sketchfab_model"
    },
    {
      "children": [
        2
      ],
      "matrix": [
        0.009999999776482582,
        0.0,
        0.0,
        0.0,
        0.0,
        0.0,
        0.009999999776482582,
        0.0,
        0.0,
        -0.009999999776482582,
        0.0,
        0.0,
        0.0,
        0.0,
        0.0,
        1.0
      ],
      "name": "8e82f69f63334a33bc8e8ba49d2cc8ca.fbx"
    },
    {
      "children": [
        3,
        5
      ],
      "name": "RootNode"
    },
    {
      "children": [
        4
      ],
      "matrix": [
        100.0,
        0.0,
        0.0,
        0.0,
        0.0,
        -1.629206793918314e-05,
        -99.99999999999868,
        0.0,
        0.0,
        99.99999999999868,
        -1.629206793918314e-05,
        0.0,
        0.0,
        0.0,
        0.0,
        1.0
      ],
      "name": "fish_low"
    },
    {
      "mesh": 0,
      "name": "fish_low__0"
    },
    {
      "children": [
        6
      ],
      "matrix": [
        100.0,
        0.0,
        0.0,
        0.0,
        0.0,
        -1.629206793918314e-05,
        -99.99999999999868,
        0.0,
        0.0,
        99.99999999999868,
        -1.629206793918314e-05,
        0.0,
        0.0,
        0.0,
        0.0,
        1.0
      ],
      "name": "teeth_low"
    },
    {
      "mesh": 1,
      "name": "teeth_low__0"
    }
  ],
  "samplers": [
    {
      "magFilter": 9729,
      "minFilter": 9987,
      "wrapS": 10497,
      "wrapT": 10497
    }
  ],
  "scene": 0,
  "scenes": [
    {
      "name": "Sketchfab_Scene",
      "nodes": [
        0
      ]
    }
  ],
  "textures": [
    {
      "sampler": 0,
      "source": 0
    },
    {
      "sampler": 0,
      "source": 1
    }
  ]
}
